<?xml version="1.0" encoding="UTF-8"?>
<svg width="752px" height="598px" viewBox="0 0 752 598" version="1.1" xmlns="http://www.w3.org/2000/svg" xmlns:xlink="http://www.w3.org/1999/xlink">
    <!-- Generator: Sketch 52.5 (67469) - http://www.bohemiancoding.com/sketch -->
    <title>Group</title>
    <desc>Created with Sketch.</desc>
    <g id="Page-1" stroke="none" stroke-width="1" fill="none" fill-rule="evenodd">
        <g id="Desktop-HD" transform="translate(-213.000000, -231.000000)" fill="#FFFFFF">
            <g id="Group" transform="translate(213.000000, 228.000000)">
                <path d="M218.619426,56 L731.857178,56 C742.902873,56 751.857178,64.954305 751.857178,76 C751.857178,77.2485955 751.740254,78.4944477 751.507938,79.7212403 L714.413444,275.606201 C705.472508,322.820617 664.213169,357 616.159643,357 L273.247333,357 C263.780789,357 255.610866,350.363027 253.67152,341.097263 L199.043613,80.0972631 C196.780757,69.2858404 203.71074,58.6870434 214.522163,56.4241875 C215.869677,56.1421496 217.242712,56 218.619426,56 Z M253.687915,100 C252.070803,100 250.459659,100.196126 248.889773,100.584083 C238.166658,103.234024 231.622057,114.075027 234.271998,124.798142 L277.024475,297.798142 C279.231033,306.727088 287.242839,313 296.440392,313 L569.968574,313 C616.789696,313 657.342551,280.513004 667.558962,234.820089 L692.25567,124.364018 C692.575978,122.931439 692.737593,121.46795 692.737593,120 C692.737593,108.954305 683.783288,100 672.737593,100 L253.687915,100 Z" id="Combined-Shape"></path>
                <rect id="Rectangle" x="0" y="3" width="204" height="53" rx="20"></rect>
                <rect id="Rectangle" x="228" y="410" width="451" height="53" rx="20"></rect>
                <rect id="Rectangle" transform="translate(217.255070, 226.675825) rotate(80.000000) translate(-217.255070, -226.675825) " x="-8.24493048" y="200.175825" width="451" height="53" rx="20"></rect>
                <circle id="Oval" cx="325" cy="541.35165" r="59"></circle>
                <circle id="Oval" cx="565" cy="541.35165" r="59"></circle>
            </g>
        </g>
    </g>
</svg>